Coordinates
version=1
nRows=11
nColumns=63
inDegrees=yes

Units are S.I. units (second, meters, Newtons, ...)
If the header above contains a line with 'inDegrees', this indicates whether rotational values are in degrees (yes) or radians (no).

endheader
time	pelvis_tilt	pelvis_list	pelvis_rotation	pelvis_tx	pelvis_ty	pelvis_tz	hip_flexion_r	hip_adduction_r	hip_rotation_r	knee_angle_r	knee_angle_r_beta	ankle_angle_r	subtalar_angle_r	mtp_angle_r	hip_flexion_l	hip_adduction_l	hip_rotation_l	knee_angle_l	knee_angle_l_beta	ankle_angle_l	subtalar_angle_l	mtp_angle_l	L5_S1_Flex_Ext	L5_S1_Lat_Bending	L5_S1_axial_rotation	L4_L5_Flex_Ext	L4_L5_Lat_Bending	L4_L5_axial_rotation	L3_L4_Flex_Ext	L3_L4_Lat_Bending	L3_L4_axial_rotation	L2_L3_Flex_Ext	L2_L3_Lat_Bending	L2_L3_axial_rotation	L1_L2_Flex_Ext	L1_L2_Lat_Bending	L1_L2_axial_rotation	L1_T12_Flex_Ext	L1_T12_Lat_Bending	L1_T12_axial_rotation	Abs_r3	Abs_r2	Abs_r1	Abs_t1	Abs_t2	neck_flexion	neck_bending	neck_rotation	arm_flex_r	arm_add_r	arm_rot_r	elbow_flex_r	pro_sup_r	wrist_flex_r	wrist_dev_r	arm_flex_l	arm_add_l	arm_rot_l	elbow_flex_l	pro_sup_l	wrist_flex_l	wrist_dev_l
5.000000	-2.588638	-3.674919	102.200496	0.063080	0.957634	0.511563	-0.974585	-0.247802	-10.267041	7.479558	0.130543	26.293263	8.493789	0.000000	-2.190688	0.225634	7.079907	1.460326	0.025488	22.435771	0.501508	0.000000	0.105772	0.064038	-0.237340	0.196429	0.085171	-0.252174	0.173773	0.155703	-0.252174	0.120887	0.155703	-0.207673	0.098220	0.130587	-0.192839	0.060438	0.099195	-0.178005	0.755520	0.724413	-1.320015	0.000000	0.000000	18.856713	-2.434509	-1.352413	10.739331	-9.683419	48.858319	42.077714	41.639456	-2.578603	14.691178	12.919742	-6.501022	44.651607	50.050533	90.914383	8.209978	8.429287
5.016949	-2.774509	-3.629508	101.731359	0.063866	0.957827	0.511160	-0.981269	-0.462421	-10.216523	7.590511	0.132479	26.415915	8.837255	0.000000	-2.333021	0.408993	6.007868	1.384694	0.024167	22.693953	1.414693	0.000000	0.097612	0.037266	-0.179355	0.181275	0.049563	-0.190564	0.160367	0.090608	-0.190564	0.111561	0.090608	-0.156935	0.090643	0.075992	-0.145726	0.055776	0.057725	-0.134516	0.697233	0.421557	-0.997517	0.000000	0.000000	18.736179	-2.245975	-1.642715	10.994154	-9.204245	54.307462	42.363250	30.663713	-5.396541	15.638510	13.235371	-5.697646	51.981643	47.982953	85.728416	8.435810	9.213732
5.033898	-2.983909	-3.604629	101.360548	0.064584	0.957659	0.510649	-1.049954	-0.678370	-10.022458	7.582330	0.132337	26.528509	8.944704	0.000000	-2.453478	0.614015	5.046437	1.292621	0.022560	23.074908	2.338698	0.000000	0.088825	0.007926	-0.155850	0.164956	0.010541	-0.165591	0.145930	0.019271	-0.165591	0.101518	0.019271	-0.136369	0.082482	0.016162	-0.126628	0.050754	0.012277	-0.116888	0.634465	0.089658	-0.866793	0.000000	0.000000	18.768963	-2.053937	-1.779555	10.951738	-9.106821	54.817691	43.883787	23.913281	-8.737040	17.901284	13.117419	-5.823677	52.663018	48.132150	84.967886	9.131981	10.957077
5.050847	-3.167175	-3.583078	101.047959	0.065138	0.957417	0.510241	-1.153657	-0.864627	-9.817064	7.491389	0.130749	26.585378	9.021815	0.000000	-2.544525	0.797895	4.104389	1.198966	0.020926	23.528002	3.326697	0.000000	0.080084	-0.015867	-0.147448	0.148723	-0.021103	-0.156663	0.131569	-0.038579	-0.156663	0.091528	-0.038579	-0.129017	0.074366	-0.032356	-0.119801	0.045760	-0.024578	-0.110586	0.572029	-0.179490	-0.820060	0.000000	0.000000	18.821813	-1.898999	-1.819562	10.997655	-8.986117	55.514524	45.134953	17.636669	-11.628878	20.197470	12.894729	-5.959110	53.045229	48.255285	83.937314	9.649039	12.657413
5.067797	-3.315418	-3.570285	100.801318	0.065512	0.957105	0.509968	-1.277692	-1.014069	-9.575120	7.332838	0.127982	26.588281	9.019418	0.000000	-2.599228	0.954443	3.327395	1.106328	0.019309	23.993724	4.171589	0.000000	0.072419	-0.032969	-0.156948	0.134490	-0.043848	-0.166757	0.118978	-0.080160	-0.166757	0.082768	-0.080160	-0.137329	0.067249	-0.067230	-0.127520	0.041380	-0.051068	-0.117711	0.517284	-0.372947	-0.872895	0.000000	0.000000	18.889724	-1.783092	-1.734567	11.215772	-8.868526	56.768449	46.062526	11.792111	-13.997701	22.304199	12.571377	-6.092418	53.114057	48.377688	82.437407	9.964508	14.427839
5.084746	-3.427833	-3.561511	100.629450	0.065726	0.956757	0.509831	-1.423277	-1.120921	-9.317389	7.115510	0.124189	26.550447	8.933089	0.000000	-2.621183	1.076878	2.638215	1.025947	0.017906	24.468940	4.985170	0.000000	0.064803	-0.044096	-0.175487	0.120346	-0.058648	-0.186454	0.106465	-0.107216	-0.186454	0.074064	-0.107216	-0.153551	0.060176	-0.089921	-0.142583	0.037029	-0.068305	-0.131615	0.462884	-0.498828	-0.976004	0.000000	0.000000	18.980248	-1.733659	-1.622998	11.530868	-8.752842	58.270829	46.678030	6.885822	-15.736582	24.101122	12.242323	-6.225870	53.081881	48.447119	80.444730	10.206289	16.136850
5.101695	-3.502766	-3.562631	100.535732	0.065778	0.956384	0.509853	-1.570386	-1.192607	-9.158975	6.865891	0.119832	26.508901	8.914990	0.000000	-2.605460	1.165024	2.130969	0.961971	0.016790	24.924216	5.644714	0.000000	0.057637	-0.049397	-0.200847	0.107039	-0.065698	-0.213400	0.094693	-0.120105	-0.213400	0.065874	-0.120105	-0.175741	0.053522	-0.100731	-0.163188	0.032934	-0.076516	-0.150635	0.411699	-0.558792	-1.117050	0.000000	0.000000	19.102476	-1.756580	-1.505666	11.924781	-8.664781	59.949546	47.029610	3.135988	-16.864079	25.438578	11.918144	-6.348181	52.931006	48.448767	78.449479	10.567071	17.671444
5.118644	-3.530627	-3.583548	100.522689	0.065669	0.955995	0.510003	-1.696891	-1.218732	-9.065179	6.602220	0.115230	26.459752	8.897688	0.000000	-2.545545	1.210143	1.753138	0.910671	0.015894	25.340648	6.206605	0.000000	0.053314	-0.048014	-0.228284	0.099010	-0.063859	-0.242551	0.087590	-0.116742	-0.242551	0.060933	-0.116742	-0.199748	0.049508	-0.097910	-0.185480	0.030464	-0.074374	-0.171213	0.380819	-0.543145	-1.269645	0.000000	0.000000	19.244658	-1.851723	-1.371803	12.300146	-8.608951	61.395367	47.180226	1.219977	-17.260151	26.281522	11.608519	-6.450437	52.716328	48.395094	76.739984	11.073742	19.060530
5.135593	-3.527801	-3.621326	100.602274	0.065431	0.955613	0.510286	-1.803099	-1.215404	-9.081991	6.337761	0.110615	26.427137	8.928658	0.000000	-2.446416	1.226181	1.630073	0.881079	0.015378	25.685047	6.533472	0.000000	0.050638	-0.043105	-0.256893	0.094040	-0.057329	-0.272948	0.083194	-0.104805	-0.272948	0.057875	-0.104805	-0.224781	0.047023	-0.087899	-0.208725	0.028935	-0.066769	-0.192669	0.361704	-0.487608	-1.428760	0.000000	0.000000	19.407292	-1.984490	-1.274571	12.672255	-8.595405	62.748881	47.150992	0.920371	-16.945380	26.532550	11.399358	-6.585042	52.692673	48.322490	75.460639	11.712671	20.232664
5.152542	-3.503993	-3.682583	100.748590	0.065115	0.955242	0.510649	-1.873842	-1.194144	-9.164438	6.089428	0.106281	26.413696	8.968085	0.000000	-2.311564	1.223454	1.594009	0.872333	0.015225	25.958243	6.804344	0.000000	0.050749	-0.036991	-0.272062	0.094246	-0.049197	-0.289066	0.083375	-0.089939	-0.289066	0.058001	-0.089939	-0.238054	0.047125	-0.075431	-0.221051	0.028998	-0.057298	-0.204047	0.362493	-0.418445	-1.513129	0.000000	0.000000	19.569410	-2.169699	-1.333042	12.913522	-8.610132	63.658209	46.993879	2.435169	-15.796179	26.407721	11.334190	-6.722991	52.965638	48.189597	74.682824	12.543127	21.080783
5.169492	-3.466200	-3.755958	100.951729	0.064737	0.954919	0.511071	-1.915451	-1.161405	-9.316474	5.868365	0.102422	26.419954	9.013131	0.000000	-2.155401	1.205570	1.607868	0.892660	0.015580	26.156693	7.067491	0.000000	0.052281	-0.030234	-0.278662	0.097092	-0.040211	-0.296079	0.085893	-0.073511	-0.296079	0.059752	-0.073511	-0.243829	0.048548	-0.061653	-0.226413	0.029874	-0.046832	-0.208997	0.373440	-0.342011	-1.549836	0.000000	0.000000	19.705352	-2.353416	-1.473027	13.089478	-8.670931	64.403295	46.754604	5.019767	-13.922177	26.023752	11.415141	-6.864830	53.554184	48.014157	74.365276	13.455021	21.587168
